<svg xmlns="http://www.w3.org/2000/svg" viewBox="0 0 240 148" fill="none">
  <!-- A tiny polar bear on a floating piece of sea ice. -->
  <path d="m19 113 44-17 93-5 59 22-24 23-118 6z" fill="#cee6e4" stroke="#447e84" stroke-width="1.4"/>
  <path d="m19 113 77 13 119-13M96 126l-8 14m81-18-6 16" stroke="#75a7aa" stroke-width="1.4"/>
  <path d="m32 111 34-11 83-4 48 16-99 10z" fill="#fdfcf9"/>
  <g stroke="#315d66" stroke-width="1.6" stroke-linecap="round" stroke-linejoin="round">
    <path d="M70 57c3-17 18-26 39-25 23 1 37 14 40 31l7 27-22 10-62-4-11-19z" fill="#fdfcf9"/>
    <path d="M69 68c-12-3-18 3-16 10 1 5 7 6 13 4" fill="#fdfcf9"/>
    <path d="m83 79-5 24c-1 8 18 7 20 2l4-22M126 81l3 22c1 7 20 5 20 0l-5-24" fill="#fdfcf9"/>
    <path d="M132 49c-6-10 0-21 10-17l5 6c6-4 14-4 21 0l6-4c9-2 13 10 7 16 5 7 6 17 12 22l8 4c6 6-1 15-10 16l-23-1c-23 0-35-16-36-28z" fill="#fdfcf9"/>
    <path d="M144 42c-5-4-8-3-7 3m39-3c4-4 6-2 5 2M184 82l-6 2"/>
  </g>
  <circle cx="173" cy="62" r="2.4" fill="#203e49"/>
  <path d="m195 73 8 4c1 5-5 7-8 4z" fill="#203e49"/>
  <path d="M158 78c3 1 5 1 7 0" stroke="#95b7b6" stroke-width="2" stroke-linecap="round"/>
</svg>
